<svg xmlns="http://www.w3.org/2000/svg" width="254" height="254">
  <rect width="254" height="254" style="fill: #7b7c41;" />
  <rect x="1" y="1" width="22" height="22" style="fill: #6e6e39;" />
  <rect x="24" y="1" width="22" height="22" style="fill: #6e6e39;" />
  <rect x="47" y="1" width="22" height="22" style="fill: #6e6e39;" />
  <rect x="70" y="1" width="22" height="22" style="fill: #6e6e39;" />
  <rect x="93" y="1" width="22" height="22" style="fill: #6e6e39;" />
  <rect x="116" y="1" width="22" height="22" style="fill: #6e6e39;" />
  <rect x="139" y="1" width="22" height="22" style="fill: #6e6e39;" />
  <rect x="162" y="1" width="22" height="22" style="fill: #6e6e39;" />
  <rect x="185" y="1" width="22" height="22" style="fill: #6e6e39;" />
  <rect x="208" y="1" width="22" height="22" style="fill: #6e6e39;" />
  <rect x="231" y="1" width="22" height="22" style="fill: #6e6e39;" />
  <rect x="1" y="24" width="22" height="22" style="fill: #6e6e39;" />
  <rect x="24" y="24" width="22" height="22" style="fill: #397272;" />
  <rect x="47" y="24" width="22" height="22" style="fill: #397272;" />
  <rect x="70" y="24" width="22" height="22" style="fill: #397272;" />
  <circle cx="81" cy="35" r="7.7" style="fill: #00ffff;" />
  <rect x="93" y="24" width="22" height="22" style="fill: #393972;" />
  <circle cx="104" cy="35" r="7.7" style="fill: #0000ff;" />
  <rect x="116" y="24" width="22" height="22" style="fill: #393972;" />
  <rect x="139" y="24" width="22" height="22" style="fill: #393972;" />
  <rect x="162" y="24" width="22" height="22" style="fill: #393972;" />
  <rect x="185" y="24" width="22" height="22" style="fill: #393972;" />
  <rect x="208" y="24" width="22" height="22" style="fill: #393972;" />
  <rect x="231" y="24" width="22" height="22" style="fill: #6e6e39;" />
  <rect x="1" y="47" width="22" height="22" style="fill: #6e6e39;" />
  <rect x="24" y="47" width="22" height="22" style="fill: #397272;" />
  <rect x="47" y="47" width="22" height="22" style="fill: #723972;" />
  <rect x="70" y="47" width="22" height="22" style="fill: #723972;" />
  <rect x="93" y="47" width="22" height="22" style="fill: #723972;" />
  <rect x="116" y="47" width="22" height="22" style="fill: #723972;" />
  <rect x="139" y="47" width="22" height="22" style="fill: #723972;" />
  <rect x="162" y="47" width="22" height="22" style="fill: #723972;" />
  <rect x="185" y="47" width="22" height="22" style="fill: #723972;" />
  <rect x="208" y="47" width="22" height="22" style="fill: #393972;" />
  <rect x="231" y="47" width="22" height="22" style="fill: #6e6e39;" />
  <rect x="1" y="70" width="22" height="22" style="fill: #6e6e39;" />
  <rect x="24" y="70" width="22" height="22" style="fill: #397272;" />
  <rect x="47" y="70" width="22" height="22" style="fill: #723972;" />
  <rect x="70" y="70" width="22" height="22" style="fill: #723939;" />
  <circle cx="81" cy="81" r="7.7" style="fill: #ff0000;" />
  <rect x="93" y="70" width="22" height="22" style="fill: #395539;" />
  <rect x="116" y="70" width="22" height="22" style="fill: #395539;" />
  <rect x="139" y="70" width="22" height="22" style="fill: #395539;" />
  <rect x="162" y="70" width="22" height="22" style="fill: #395539;" />
  <rect x="185" y="70" width="22" height="22" style="fill: #723972;" />
  <circle cx="196" cy="81" r="7.7" style="fill: #ff00ff;" />
  <rect x="208" y="70" width="22" height="22" style="fill: #393972;" />
  <rect x="231" y="70" width="22" height="22" style="fill: #6e6e39;" />
  <rect x="1" y="93" width="22" height="22" style="fill: #6e6e39;" />
  <rect x="24" y="93" width="22" height="22" style="fill: #397272;" />
  <rect x="47" y="93" width="22" height="22" style="fill: #723972;" />
  <rect x="70" y="93" width="22" height="22" style="fill: #723939;" />
  <rect x="93" y="93" width="22" height="22" style="fill: #395539;" />
  <rect x="116" y="93" width="22" height="22" style="fill: #725539;" />
  <circle cx="127" cy="104" r="7.7" style="fill: #ff8000;" />
  <rect x="139" y="93" width="22" height="22" style="fill: #6e6e39;" />
  <circle cx="150" cy="104" r="7.7" style="fill: #eeee00;" />
  <rect x="162" y="93" width="22" height="22" style="fill: #395539;" />
  <rect x="185" y="93" width="22" height="22" style="fill: #395539;" />
  <circle cx="196" cy="104" r="7.7" style="fill: #008100;" />
  <rect x="208" y="93" width="22" height="22" style="fill: #393972;" />
  <rect x="231" y="93" width="22" height="22" style="fill: #6e6e39;" />
  <rect x="1" y="116" width="22" height="22" style="fill: #6e6e39;" />
  <rect x="24" y="116" width="22" height="22" style="fill: #397272;" />
  <rect x="47" y="116" width="22" height="22" style="fill: #723972;" />
  <rect x="70" y="116" width="22" height="22" style="fill: #723939;" />
  <rect x="93" y="116" width="22" height="22" style="fill: #395539;" />
  <rect x="116" y="116" width="22" height="22" style="fill: #725539;" />
  <rect x="139" y="116" width="22" height="22" style="fill: #6e6e39;" />
  <rect x="162" y="116" width="22" height="22" style="fill: #6e6e39;" />
  <rect x="185" y="116" width="22" height="22" style="fill: #6e6e39;" />
  <rect x="208" y="116" width="22" height="22" style="fill: #393972;" />
  <circle cx="219" cy="127" r="7.7" style="fill: #0000ff;" />
  <rect x="231" y="116" width="22" height="22" style="fill: #6e6e39;" />
  <rect x="1" y="139" width="22" height="22" style="fill: #6e6e39;" />
  <rect x="24" y="139" width="22" height="22" style="fill: #397272;" />
  <rect x="47" y="139" width="22" height="22" style="fill: #723972;" />
  <rect x="70" y="139" width="22" height="22" style="fill: #723939;" />
  <rect x="93" y="139" width="22" height="22" style="fill: #395539;" />
  <rect x="116" y="139" width="22" height="22" style="fill: #725539;" />
  <rect x="139" y="139" width="22" height="22" style="fill: #725539;" />
  <rect x="162" y="139" width="22" height="22" style="fill: #725539;" />
  <rect x="185" y="139" width="22" height="22" style="fill: #6e6e39;" />
  <rect x="208" y="139" width="22" height="22" style="fill: #6e6e39;" />
  <rect x="231" y="139" width="22" height="22" style="fill: #6e6e39;" />
  <rect x="1" y="162" width="22" height="22" style="fill: #6e6e39;" />
  <rect x="24" y="162" width="22" height="22" style="fill: #397272;" />
  <rect x="47" y="162" width="22" height="22" style="fill: #723972;" />
  <rect x="70" y="162" width="22" height="22" style="fill: #723939;" />
  <rect x="93" y="162" width="22" height="22" style="fill: #395539;" />
  <rect x="116" y="162" width="22" height="22" style="fill: #395539;" />
  <rect x="139" y="162" width="22" height="22" style="fill: #395539;" />
  <rect x="162" y="162" width="22" height="22" style="fill: #725539;" />
  <rect x="185" y="162" width="22" height="22" style="fill: #725539;" />
  <rect x="208" y="162" width="22" height="22" style="fill: #725539;" />
  <rect x="231" y="162" width="22" height="22" style="fill: #725539;" />
  <circle cx="242" cy="173" r="7.7" style="fill: #ff8000;" />
  <rect x="1" y="185" width="22" height="22" style="fill: #6e6e39;" />
  <rect x="24" y="185" width="22" height="22" style="fill: #397272;" />
  <rect x="47" y="185" width="22" height="22" style="fill: #723972;" />
  <circle cx="58" cy="196" r="7.7" style="fill: #ff00ff;" />
  <rect x="70" y="185" width="22" height="22" style="fill: #723939;" />
  <rect x="93" y="185" width="22" height="22" style="fill: #723939;" />
  <rect x="116" y="185" width="22" height="22" style="fill: #723939;" />
  <circle cx="127" cy="196" r="7.7" style="fill: #ff0000;" />
  <rect x="139" y="185" width="22" height="22" style="fill: #395539;" />
  <rect x="162" y="185" width="22" height="22" style="fill: #395539;" />
  <rect x="185" y="185" width="22" height="22" style="fill: #395539;" />
  <rect x="208" y="185" width="22" height="22" style="fill: #395539;" />
  <rect x="231" y="185" width="22" height="22" style="fill: #395539;" />
  <rect x="1" y="208" width="22" height="22" style="fill: #6e6e39;" />
  <rect x="24" y="208" width="22" height="22" style="fill: #397272;" />
  <rect x="47" y="208" width="22" height="22" style="fill: #397272;" />
  <rect x="70" y="208" width="22" height="22" style="fill: #397272;" />
  <rect x="93" y="208" width="22" height="22" style="fill: #397272;" />
  <rect x="116" y="208" width="22" height="22" style="fill: #397272;" />
  <rect x="139" y="208" width="22" height="22" style="fill: #397272;" />
  <rect x="162" y="208" width="22" height="22" style="fill: #397272;" />
  <rect x="185" y="208" width="22" height="22" style="fill: #397272;" />
  <rect x="208" y="208" width="22" height="22" style="fill: #397272;" />
  <rect x="231" y="208" width="22" height="22" style="fill: #395539;" />
  <circle cx="242" cy="219" r="7.7" style="fill: #008100;" />
  <rect x="1" y="231" width="22" height="22" style="fill: #6e6e39;" />
  <rect x="24" y="231" width="22" height="22" style="fill: #6e6e39;" />
  <rect x="47" y="231" width="22" height="22" style="fill: #6e6e39;" />
  <rect x="70" y="231" width="22" height="22" style="fill: #6e6e39;" />
  <rect x="93" y="231" width="22" height="22" style="fill: #6e6e39;" />
  <rect x="116" y="231" width="22" height="22" style="fill: #6e6e39;" />
  <rect x="139" y="231" width="22" height="22" style="fill: #6e6e39;" />
  <rect x="162" y="231" width="22" height="22" style="fill: #6e6e39;" />
  <rect x="185" y="231" width="22" height="22" style="fill: #6e6e39;" />
  <circle cx="196" cy="242" r="7.7" style="fill: #eeee00;" />
  <rect x="208" y="231" width="22" height="22" style="fill: #397272;" />
  <rect x="231" y="231" width="22" height="22" style="fill: #397272;" />
  <circle cx="242" cy="242" r="7.7" style="fill: #00ffff;" />
  <path d="M 81,35 h -23 h -23 v 23 v 23 v 23 v 23 v 23 v 23 v 23 v 23 h 23 h 23 h 23 h 23 h 23 h 23 h 23 h 23 v 23 h 23  " style="stroke: #00ffff; stroke-width: 7.7; fill: none; stroke-linecap: round" />
  <path d="M 219,127 v -23 v -23 v -23 v -23 h -23 h -23 h -23 h -23 h -23  " style="stroke: #0000ff; stroke-width: 7.7; fill: none; stroke-linecap: round" />
  <path d="M 81,81 v 23 v 23 v 23 v 23 v 23 h 23 h 23  " style="stroke: #ff0000; stroke-width: 7.7; fill: none; stroke-linecap: round" />
  <path d="M 58,196 v -23 v -23 v -23 v -23 v -23 v -23 h 23 h 23 h 23 h 23 h 23 h 23 v 23  " style="stroke: #ff00ff; stroke-width: 7.7; fill: none; stroke-linecap: round" />
  <path d="M 127,104 v 23 v 23 h 23 h 23 v 23 h 23 h 23 h 23  " style="stroke: #ff8000; stroke-width: 7.7; fill: none; stroke-linecap: round" />
  <path d="M 150,104 v 23 h 23 h 23 v 23 h 23 h 23 v -23 v -23 v -23 v -23 v -23 v -23 h -23 h -23 h -23 h -23 h -23 h -23 h -23 h -23 h -23 h -23 v 23 v 23 v 23 v 23 v 23 v 23 v 23 v 23 v 23 v 23 h 23 h 23 h 23 h 23 h 23 h 23 h 23 h 23  " style="stroke: #eeee00; stroke-width: 7.7; fill: none; stroke-linecap: round" />
  <path d="M 196,104 h -23 v -23 h -23 h -23 h -23 v 23 v 23 v 23 v 23 h 23 h 23 v 23 h 23 h 23 h 23 h 23 v 23  " style="stroke: #008100; stroke-width: 7.7; fill: none; stroke-linecap: round" />
</svg>
