<svg xmlns="http://www.w3.org/2000/svg" width="253" height="253">
  <rect width="253" height="253" style="fill: #7b7c41;" />
  <rect x="1" y="1" width="20" height="20" style="fill: #6e6e39;" />
  <rect x="22" y="1" width="20" height="20" style="fill: #6e6e39;" />
  <rect x="43" y="1" width="20" height="20" style="fill: #6e6e39;" />
  <rect x="64" y="1" width="20" height="20" style="fill: #6e6e39;" />
  <rect x="85" y="1" width="20" height="20" style="fill: #6e6e39;" />
  <rect x="106" y="1" width="20" height="20" style="fill: #6e6e39;" />
  <rect x="127" y="1" width="20" height="20" style="fill: #6e6e39;" />
  <rect x="148" y="1" width="20" height="20" style="fill: #6e6e39;" />
  <rect x="169" y="1" width="20" height="20" style="fill: #6e6e39;" />
  <rect x="190" y="1" width="20" height="20" style="fill: #6e6e39;" />
  <rect x="211" y="1" width="20" height="20" style="fill: #6e6e39;" />
  <rect x="232" y="1" width="20" height="20" style="fill: #6e6e39;" />
  <rect x="1" y="22" width="20" height="20" style="fill: #6e6e39;" />
  <rect x="22" y="22" width="20" height="20" style="fill: #723939;" />
  <rect x="43" y="22" width="20" height="20" style="fill: #723939;" />
  <rect x="64" y="22" width="20" height="20" style="fill: #723939;" />
  <rect x="85" y="22" width="20" height="20" style="fill: #723939;" />
  <rect x="106" y="22" width="20" height="20" style="fill: #723939;" />
  <rect x="127" y="22" width="20" height="20" style="fill: #723939;" />
  <rect x="148" y="22" width="20" height="20" style="fill: #723939;" />
  <rect x="169" y="22" width="20" height="20" style="fill: #723939;" />
  <rect x="190" y="22" width="20" height="20" style="fill: #723939;" />
  <rect x="211" y="22" width="20" height="20" style="fill: #723939;" />
  <rect x="232" y="22" width="20" height="20" style="fill: #6e6e39;" />
  <rect x="1" y="43" width="20" height="20" style="fill: #6e6e39;" />
  <rect x="22" y="43" width="20" height="20" style="fill: #723939;" />
  <rect x="43" y="43" width="20" height="20" style="fill: #397272;" />
  <rect x="64" y="43" width="20" height="20" style="fill: #397272;" />
  <rect x="85" y="43" width="20" height="20" style="fill: #397272;" />
  <rect x="106" y="43" width="20" height="20" style="fill: #397272;" />
  <rect x="127" y="43" width="20" height="20" style="fill: #397272;" />
  <rect x="148" y="43" width="20" height="20" style="fill: #397272;" />
  <rect x="169" y="43" width="20" height="20" style="fill: #397272;" />
  <rect x="190" y="43" width="20" height="20" style="fill: #393972;" />
  <circle cx="200" cy="53" r="7" style="fill: #0000ff;" />
  <rect x="211" y="43" width="20" height="20" style="fill: #723939;" />
  <rect x="232" y="43" width="20" height="20" style="fill: #6e6e39;" />
  <rect x="1" y="64" width="20" height="20" style="fill: #6e6e39;" />
  <rect x="22" y="64" width="20" height="20" style="fill: #723939;" />
  <rect x="43" y="64" width="20" height="20" style="fill: #397272;" />
  <rect x="64" y="64" width="20" height="20" style="fill: #725539;" />
  <rect x="85" y="64" width="20" height="20" style="fill: #725539;" />
  <rect x="106" y="64" width="20" height="20" style="fill: #725539;" />
  <rect x="127" y="64" width="20" height="20" style="fill: #725539;" />
  <rect x="148" y="64" width="20" height="20" style="fill: #725539;" />
  <rect x="169" y="64" width="20" height="20" style="fill: #397272;" />
  <circle cx="179" cy="74" r="7" style="fill: #00ffff;" />
  <rect x="190" y="64" width="20" height="20" style="fill: #393972;" />
  <rect x="211" y="64" width="20" height="20" style="fill: #723939;" />
  <rect x="232" y="64" width="20" height="20" style="fill: #6e6e39;" />
  <rect x="1" y="85" width="20" height="20" style="fill: #6e6e39;" />
  <rect x="22" y="85" width="20" height="20" style="fill: #723939;" />
  <rect x="43" y="85" width="20" height="20" style="fill: #397272;" />
  <rect x="64" y="85" width="20" height="20" style="fill: #725539;" />
  <rect x="85" y="85" width="20" height="20" style="fill: #395539;" />
  <rect x="106" y="85" width="20" height="20" style="fill: #395539;" />
  <rect x="127" y="85" width="20" height="20" style="fill: #395539;" />
  <rect x="148" y="85" width="20" height="20" style="fill: #725539;" />
  <rect x="169" y="85" width="20" height="20" style="fill: #725539;" />
  <circle cx="179" cy="95" r="7" style="fill: #ff8000;" />
  <rect x="190" y="85" width="20" height="20" style="fill: #393972;" />
  <rect x="211" y="85" width="20" height="20" style="fill: #723939;" />
  <rect x="232" y="85" width="20" height="20" style="fill: #6e6e39;" />
  <rect x="1" y="106" width="20" height="20" style="fill: #6e6e39;" />
  <rect x="22" y="106" width="20" height="20" style="fill: #723939;" />
  <rect x="43" y="106" width="20" height="20" style="fill: #397272;" />
  <rect x="64" y="106" width="20" height="20" style="fill: #725539;" />
  <rect x="85" y="106" width="20" height="20" style="fill: #395539;" />
  <rect x="106" y="106" width="20" height="20" style="fill: #6e6e39;" />
  <circle cx="116" cy="116" r="7" style="fill: #eeee00;" />
  <rect x="127" y="106" width="20" height="20" style="fill: #395539;" />
  <rect x="148" y="106" width="20" height="20" style="fill: #395539;" />
  <rect x="169" y="106" width="20" height="20" style="fill: #395539;" />
  <rect x="190" y="106" width="20" height="20" style="fill: #393972;" />
  <rect x="211" y="106" width="20" height="20" style="fill: #723939;" />
  <circle cx="221" cy="116" r="7" style="fill: #ff0000;" />
  <rect x="232" y="106" width="20" height="20" style="fill: #6e6e39;" />
  <rect x="1" y="127" width="20" height="20" style="fill: #6e6e39;" />
  <rect x="22" y="127" width="20" height="20" style="fill: #723939;" />
  <rect x="43" y="127" width="20" height="20" style="fill: #397272;" />
  <rect x="64" y="127" width="20" height="20" style="fill: #725539;" />
  <rect x="85" y="127" width="20" height="20" style="fill: #395539;" />
  <rect x="106" y="127" width="20" height="20" style="fill: #6e6e39;" />
  <rect x="127" y="127" width="20" height="20" style="fill: #6e6e39;" />
  <rect x="148" y="127" width="20" height="20" style="fill: #6e6e39;" />
  <rect x="169" y="127" width="20" height="20" style="fill: #395539;" />
  <circle cx="179" cy="137" r="7" style="fill: #008100;" />
  <rect x="190" y="127" width="20" height="20" style="fill: #393972;" />
  <rect x="211" y="127" width="20" height="20" style="fill: #393972;" />
  <rect x="232" y="127" width="20" height="20" style="fill: #6e6e39;" />
  <rect x="1" y="148" width="20" height="20" style="fill: #6e6e39;" />
  <rect x="22" y="148" width="20" height="20" style="fill: #723939;" />
  <rect x="43" y="148" width="20" height="20" style="fill: #397272;" />
  <rect x="64" y="148" width="20" height="20" style="fill: #725539;" />
  <rect x="85" y="148" width="20" height="20" style="fill: #395539;" />
  <rect x="106" y="148" width="20" height="20" style="fill: #395539;" />
  <rect x="127" y="148" width="20" height="20" style="fill: #395539;" />
  <rect x="148" y="148" width="20" height="20" style="fill: #6e6e39;" />
  <rect x="169" y="148" width="20" height="20" style="fill: #6e6e39;" />
  <rect x="190" y="148" width="20" height="20" style="fill: #6e6e39;" />
  <rect x="211" y="148" width="20" height="20" style="fill: #393972;" />
  <circle cx="221" cy="158" r="7" style="fill: #0000ff;" />
  <rect x="232" y="148" width="20" height="20" style="fill: #6e6e39;" />
  <rect x="1" y="169" width="20" height="20" style="fill: #6e6e39;" />
  <rect x="22" y="169" width="20" height="20" style="fill: #723939;" />
  <rect x="43" y="169" width="20" height="20" style="fill: #397272;" />
  <rect x="64" y="169" width="20" height="20" style="fill: #725539;" />
  <rect x="85" y="169" width="20" height="20" style="fill: #725539;" />
  <rect x="106" y="169" width="20" height="20" style="fill: #725539;" />
  <rect x="127" y="169" width="20" height="20" style="fill: #395539;" />
  <rect x="148" y="169" width="20" height="20" style="fill: #395539;" />
  <rect x="169" y="169" width="20" height="20" style="fill: #395539;" />
  <rect x="190" y="169" width="20" height="20" style="fill: #6e6e39;" />
  <rect x="211" y="169" width="20" height="20" style="fill: #6e6e39;" />
  <rect x="232" y="169" width="20" height="20" style="fill: #6e6e39;" />
  <rect x="1" y="190" width="20" height="20" style="fill: #6e6e39;" />
  <rect x="22" y="190" width="20" height="20" style="fill: #723939;" />
  <rect x="43" y="190" width="20" height="20" style="fill: #397272;" />
  <rect x="64" y="190" width="20" height="20" style="fill: #397272;" />
  <rect x="85" y="190" width="20" height="20" style="fill: #397272;" />
  <circle cx="95" cy="200" r="7" style="fill: #00ffff;" />
  <rect x="106" y="190" width="20" height="20" style="fill: #725539;" />
  <rect x="127" y="190" width="20" height="20" style="fill: #725539;" />
  <rect x="148" y="190" width="20" height="20" style="fill: #725539;" />
  <rect x="169" y="190" width="20" height="20" style="fill: #395539;" />
  <rect x="190" y="190" width="20" height="20" style="fill: #395539;" />
  <rect x="211" y="190" width="20" height="20" style="fill: #395539;" />
  <rect x="232" y="190" width="20" height="20" style="fill: #395539;" />
  <circle cx="242" cy="200" r="7" style="fill: #008100;" />
  <rect x="1" y="211" width="20" height="20" style="fill: #6e6e39;" />
  <rect x="22" y="211" width="20" height="20" style="fill: #723939;" />
  <rect x="43" y="211" width="20" height="20" style="fill: #723939;" />
  <rect x="64" y="211" width="20" height="20" style="fill: #723939;" />
  <rect x="85" y="211" width="20" height="20" style="fill: #723939;" />
  <rect x="106" y="211" width="20" height="20" style="fill: #723939;" />
  <rect x="127" y="211" width="20" height="20" style="fill: #723939;" />
  <rect x="148" y="211" width="20" height="20" style="fill: #725539;" />
  <rect x="169" y="211" width="20" height="20" style="fill: #725539;" />
  <rect x="190" y="211" width="20" height="20" style="fill: #725539;" />
  <rect x="211" y="211" width="20" height="20" style="fill: #725539;" />
  <circle cx="221" cy="221" r="7" style="fill: #ff8000;" />
  <rect x="232" y="211" width="20" height="20" style="fill: #723939;" />
  <circle cx="242" cy="221" r="7" style="fill: #ff0000;" />
  <rect x="1" y="232" width="20" height="20" style="fill: #6e6e39;" />
  <rect x="22" y="232" width="20" height="20" style="fill: #6e6e39;" />
  <rect x="43" y="232" width="20" height="20" style="fill: #6e6e39;" />
  <rect x="64" y="232" width="20" height="20" style="fill: #6e6e39;" />
  <rect x="85" y="232" width="20" height="20" style="fill: #6e6e39;" />
  <rect x="106" y="232" width="20" height="20" style="fill: #6e6e39;" />
  <circle cx="116" cy="242" r="7" style="fill: #eeee00;" />
  <rect x="127" y="232" width="20" height="20" style="fill: #723939;" />
  <rect x="148" y="232" width="20" height="20" style="fill: #723939;" />
  <rect x="169" y="232" width="20" height="20" style="fill: #723939;" />
  <rect x="190" y="232" width="20" height="20" style="fill: #723939;" />
  <rect x="211" y="232" width="20" height="20" style="fill: #723939;" />
  <rect x="232" y="232" width="20" height="20" style="fill: #723939;" />
  <path d="M 200,53 v 21 v 21 v 21 v 21 h 21 v 21  " style="stroke: #0000ff; stroke-width: 7; fill: none; stroke-linecap: round" />
  <path d="M 179,74 v -21 h -21 h -21 h -21 h -21 h -21 h -21 v 21 v 21 v 21 v 21 v 21 v 21 v 21 h 21 h 21  " style="stroke: #00ffff; stroke-width: 7; fill: none; stroke-linecap: round" />
  <path d="M 179,95 h -21 v -21 h -21 h -21 h -21 h -21 v 21 v 21 v 21 v 21 v 21 h 21 h 21 v 21 h 21 h 21 v 21 h 21 h 21 h 21  " style="stroke: #ff8000; stroke-width: 7; fill: none; stroke-linecap: round" />
  <path d="M 116,116 v 21 h 21 h 21 v 21 h 21 h 21 v 21 h 21 h 21 v -21 v -21 v -21 v -21 v -21 v -21 v -21 v -21 h -21 h -21 h -21 h -21 h -21 h -21 h -21 h -21 h -21 h -21 h -21 v 21 v 21 v 21 v 21 v 21 v 21 v 21 v 21 v 21 v 21 v 21 h 21 h 21 h 21 h 21 h 21  " style="stroke: #eeee00; stroke-width: 7; fill: none; stroke-linecap: round" />
  <path d="M 221,116 v -21 v -21 v -21 v -21 h -21 h -21 h -21 h -21 h -21 h -21 h -21 h -21 h -21 v 21 v 21 v 21 v 21 v 21 v 21 v 21 v 21 v 21 h 21 h 21 h 21 h 21 h 21 v 21 h 21 h 21 h 21 h 21 h 21 v -21  " style="stroke: #ff0000; stroke-width: 7; fill: none; stroke-linecap: round" />
  <path d="M 179,137 v -21 h -21 h -21 v -21 h -21 h -21 v 21 v 21 v 21 h 21 h 21 v 21 h 21 h 21 v 21 h 21 h 21 h 21  " style="stroke: #008100; stroke-width: 7; fill: none; stroke-linecap: round" />
</svg>
