<svg xmlns="http://www.w3.org/2000/svg" width="251" height="251">
  <rect width="251" height="251" style="fill: #7b7c41;" />
  <rect x="1" y="1" width="24" height="24" style="fill: #723939;" />
  <circle cx="13" cy="13" r="8.4" style="fill: #ff0000;" />
  <rect x="26" y="1" width="24" height="24" style="fill: #397272;" />
  <rect x="51" y="1" width="24" height="24" style="fill: #397272;" />
  <rect x="76" y="1" width="24" height="24" style="fill: #397272;" />
  <rect x="101" y="1" width="24" height="24" style="fill: #397272;" />
  <rect x="126" y="1" width="24" height="24" style="fill: #393972;" />
  <circle cx="138" cy="13" r="8.4" style="fill: #0000ff;" />
  <rect x="151" y="1" width="24" height="24" style="fill: #393972;" />
  <rect x="176" y="1" width="24" height="24" style="fill: #393972;" />
  <rect x="201" y="1" width="24" height="24" style="fill: #393972;" />
  <rect x="226" y="1" width="24" height="24" style="fill: #393972;" />
  <circle cx="238" cy="13" r="8.4" style="fill: #0000ff;" />
  <rect x="1" y="26" width="24" height="24" style="fill: #723939;" />
  <rect x="26" y="26" width="24" height="24" style="fill: #397272;" />
  <rect x="51" y="26" width="24" height="24" style="fill: #727272;" />
  <rect x="76" y="26" width="24" height="24" style="fill: #727272;" />
  <circle cx="88" cy="38" r="8.4" style="fill: #ffffff;" />
  <rect x="101" y="26" width="24" height="24" style="fill: #397272;" />
  <rect x="126" y="26" width="24" height="24" style="fill: #397272;" />
  <rect x="151" y="26" width="24" height="24" style="fill: #397272;" />
  <rect x="176" y="26" width="24" height="24" style="fill: #397272;" />
  <rect x="201" y="26" width="24" height="24" style="fill: #397272;" />
  <rect x="226" y="26" width="24" height="24" style="fill: #397272;" />
  <rect x="1" y="51" width="24" height="24" style="fill: #723939;" />
  <rect x="26" y="51" width="24" height="24" style="fill: #397272;" />
  <rect x="51" y="51" width="24" height="24" style="fill: #727272;" />
  <circle cx="63" cy="63" r="8.4" style="fill: #ffffff;" />
  <rect x="76" y="51" width="24" height="24" style="fill: #395539;" />
  <circle cx="88" cy="63" r="8.4" style="fill: #008100;" />
  <rect x="101" y="51" width="24" height="24" style="fill: #395539;" />
  <rect x="126" y="51" width="24" height="24" style="fill: #395539;" />
  <rect x="151" y="51" width="24" height="24" style="fill: #395539;" />
  <rect x="176" y="51" width="24" height="24" style="fill: #395539;" />
  <rect x="201" y="51" width="24" height="24" style="fill: #395539;" />
  <rect x="226" y="51" width="24" height="24" style="fill: #397272;" />
  <rect x="1" y="76" width="24" height="24" style="fill: #723939;" />
  <rect x="26" y="76" width="24" height="24" style="fill: #397272;" />
  <circle cx="38" cy="88" r="8.4" style="fill: #00ffff;" />
  <rect x="51" y="76" width="24" height="24" style="fill: #725539;" />
  <circle cx="63" cy="88" r="8.4" style="fill: #ff8000;" />
  <rect x="76" y="76" width="24" height="24" style="fill: #5f4242;" />
  <circle cx="88" cy="88" r="8.4" style="fill: #a52a2a;" />
  <rect x="101" y="76" width="24" height="24" style="fill: #5f4242;" />
  <rect x="126" y="76" width="24" height="24" style="fill: #5f4242;" />
  <rect x="151" y="76" width="24" height="24" style="fill: #725539;" />
  <circle cx="163" cy="88" r="8.4" style="fill: #ff8000;" />
  <rect x="176" y="76" width="24" height="24" style="fill: #725539;" />
  <rect x="201" y="76" width="24" height="24" style="fill: #395539;" />
  <rect x="226" y="76" width="24" height="24" style="fill: #397272;" />
  <rect x="1" y="101" width="24" height="24" style="fill: #723939;" />
  <rect x="26" y="101" width="24" height="24" style="fill: #397239;" />
  <circle cx="38" cy="113" r="8.4" style="fill: #00ff00;" />
  <rect x="51" y="101" width="24" height="24" style="fill: #725539;" />
  <rect x="76" y="101" width="24" height="24" style="fill: #725539;" />
  <rect x="101" y="101" width="24" height="24" style="fill: #725539;" />
  <rect x="126" y="101" width="24" height="24" style="fill: #5f4242;" />
  <rect x="151" y="101" width="24" height="24" style="fill: #5f4242;" />
  <circle cx="163" cy="113" r="8.4" style="fill: #a52a2a;" />
  <rect x="176" y="101" width="24" height="24" style="fill: #725539;" />
  <rect x="201" y="101" width="24" height="24" style="fill: #395539;" />
  <circle cx="213" cy="113" r="8.4" style="fill: #008100;" />
  <rect x="226" y="101" width="24" height="24" style="fill: #397272;" />
  <rect x="1" y="126" width="24" height="24" style="fill: #723939;" />
  <rect x="26" y="126" width="24" height="24" style="fill: #397239;" />
  <rect x="51" y="126" width="24" height="24" style="fill: #397239;" />
  <rect x="76" y="126" width="24" height="24" style="fill: #397239;" />
  <rect x="101" y="126" width="24" height="24" style="fill: #725539;" />
  <rect x="126" y="126" width="24" height="24" style="fill: #725539;" />
  <rect x="151" y="126" width="24" height="24" style="fill: #725539;" />
  <rect x="176" y="126" width="24" height="24" style="fill: #725539;" />
  <rect x="201" y="126" width="24" height="24" style="fill: #5f5e5f;" />
  <circle cx="213" cy="138" r="8.4" style="fill: #a6a6a6;" />
  <rect x="226" y="126" width="24" height="24" style="fill: #397272;" />
  <rect x="1" y="151" width="24" height="24" style="fill: #723939;" />
  <rect x="26" y="151" width="24" height="24" style="fill: #723939;" />
  <rect x="51" y="151" width="24" height="24" style="fill: #723939;" />
  <circle cx="63" cy="163" r="8.4" style="fill: #ff0000;" />
  <rect x="76" y="151" width="24" height="24" style="fill: #397239;" />
  <rect x="101" y="151" width="24" height="24" style="fill: #397239;" />
  <rect x="126" y="151" width="24" height="24" style="fill: #723972;" />
  <circle cx="138" cy="163" r="8.4" style="fill: #ff00ff;" />
  <rect x="151" y="151" width="24" height="24" style="fill: #723972;" />
  <rect x="176" y="151" width="24" height="24" style="fill: #723972;" />
  <rect x="201" y="151" width="24" height="24" style="fill: #5f5e5f;" />
  <rect x="226" y="151" width="24" height="24" style="fill: #397272;" />
  <circle cx="238" cy="163" r="8.4" style="fill: #00ffff;" />
  <rect x="1" y="176" width="24" height="24" style="fill: #6e6e39;" />
  <circle cx="13" cy="188" r="8.4" style="fill: #eeee00;" />
  <rect x="26" y="176" width="24" height="24" style="fill: #5f5e5f;" />
  <circle cx="38" cy="188" r="8.4" style="fill: #a6a6a6;" />
  <rect x="51" y="176" width="24" height="24" style="fill: #5f5e5f;" />
  <rect x="76" y="176" width="24" height="24" style="fill: #5f5e5f;" />
  <rect x="101" y="176" width="24" height="24" style="fill: #397239;" />
  <rect x="126" y="176" width="24" height="24" style="fill: #397239;" />
  <rect x="151" y="176" width="24" height="24" style="fill: #397239;" />
  <rect x="176" y="176" width="24" height="24" style="fill: #723972;" />
  <rect x="201" y="176" width="24" height="24" style="fill: #5f5e5f;" />
  <rect x="226" y="176" width="24" height="24" style="fill: #5f5e5f;" />
  <rect x="1" y="201" width="24" height="24" style="fill: #6e6e39;" />
  <rect x="26" y="201" width="24" height="24" style="fill: #553955;" />
  <circle cx="38" cy="213" r="8.4" style="fill: #800080;" />
  <rect x="51" y="201" width="24" height="24" style="fill: #553955;" />
  <rect x="76" y="201" width="24" height="24" style="fill: #5f5e5f;" />
  <rect x="101" y="201" width="24" height="24" style="fill: #5f5e5f;" />
  <rect x="126" y="201" width="24" height="24" style="fill: #5f5e5f;" />
  <rect x="151" y="201" width="24" height="24" style="fill: #397239;" />
  <circle cx="163" cy="213" r="8.4" style="fill: #00ff00;" />
  <rect x="176" y="201" width="24" height="24" style="fill: #723972;" />
  <rect x="201" y="201" width="24" height="24" style="fill: #723972;" />
  <circle cx="213" cy="213" r="8.4" style="fill: #ff00ff;" />
  <rect x="226" y="201" width="24" height="24" style="fill: #5f5e5f;" />
  <rect x="1" y="226" width="24" height="24" style="fill: #6e6e39;" />
  <rect x="26" y="226" width="24" height="24" style="fill: #6e6e39;" />
  <circle cx="38" cy="238" r="8.4" style="fill: #eeee00;" />
  <rect x="51" y="226" width="24" height="24" style="fill: #553955;" />
  <rect x="76" y="226" width="24" height="24" style="fill: #553955;" />
  <rect x="101" y="226" width="24" height="24" style="fill: #553955;" />
  <circle cx="113" cy="238" r="8.4" style="fill: #800080;" />
  <rect x="126" y="226" width="24" height="24" style="fill: #5f5e5f;" />
  <rect x="151" y="226" width="24" height="24" style="fill: #5f5e5f;" />
  <rect x="176" y="226" width="24" height="24" style="fill: #5f5e5f;" />
  <rect x="201" y="226" width="24" height="24" style="fill: #5f5e5f;" />
  <rect x="226" y="226" width="24" height="24" style="fill: #5f5e5f;" />
  <path d="M 63,163 h -25 h -25 v -25 v -25 v -25 v -25 v -25 v -25  " style="stroke: #ff0000; stroke-width: 8.4; fill: none; stroke-linecap: round" />
  <path d="M 238,13 h -25 h -25 h -25 h -25  " style="stroke: #0000ff; stroke-width: 8.4; fill: none; stroke-linecap: round" />
  <path d="M 63,63 v -25 h 25  " style="stroke: #ffffff; stroke-width: 8.4; fill: none; stroke-linecap: round" />
  <path d="M 88,63 h 25 h 25 h 25 h 25 h 25 v 25 v 25  " style="stroke: #008100; stroke-width: 8.4; fill: none; stroke-linecap: round" />
  <path d="M 38,88 v -25 v -25 v -25 h 25 h 25 h 25 v 25 h 25 h 25 h 25 h 25 h 25 v 25 v 25 v 25 v 25 v 25  " style="stroke: #00ffff; stroke-width: 8.4; fill: none; stroke-linecap: round" />
  <path d="M 163,88 h 25 v 25 v 25 h -25 h -25 h -25 v -25 h -25 h -25 v -25  " style="stroke: #ff8000; stroke-width: 8.4; fill: none; stroke-linecap: round" />
  <path d="M 163,113 h -25 v -25 h -25 h -25  " style="stroke: #a52a2a; stroke-width: 8.4; fill: none; stroke-linecap: round" />
  <path d="M 163,213 v -25 h -25 h -25 v -25 h -25 v -25 h -25 h -25 v -25  " style="stroke: #00ff00; stroke-width: 8.4; fill: none; stroke-linecap: round" />
  <path d="M 38,188 h 25 h 25 v 25 h 25 h 25 v 25 h 25 h 25 h 25 h 25 v -25 v -25 h -25 v -25 v -25  " style="stroke: #a6a6a6; stroke-width: 8.4; fill: none; stroke-linecap: round" />
  <path d="M 138,163 h 25 h 25 v 25 v 25 h 25  " style="stroke: #ff00ff; stroke-width: 8.4; fill: none; stroke-linecap: round" />
  <path d="M 38,238 h -25 v -25 v -25  " style="stroke: #eeee00; stroke-width: 8.4; fill: none; stroke-linecap: round" />
  <path d="M 38,213 h 25 v 25 h 25 h 25  " style="stroke: #800080; stroke-width: 8.4; fill: none; stroke-linecap: round" />
</svg>
