<svg xmlns="http://www.w3.org/2000/svg" width="248" height="248">
  <rect width="248" height="248" style="fill: #7b7c41;" />
  <rect x="1" y="1" width="18" height="18" style="fill: #6e6e39;" />
  <circle cx="10" cy="10" r="6.3" style="fill: #eeee00;" />
  <rect x="20" y="1" width="18" height="18" style="fill: #6e6e39;" />
  <rect x="39" y="1" width="18" height="18" style="fill: #6e6e39;" />
  <rect x="58" y="1" width="18" height="18" style="fill: #6e6e39;" />
  <circle cx="67" cy="10" r="6.3" style="fill: #eeee00;" />
  <rect x="77" y="1" width="18" height="18" style="fill: #397239;" />
  <rect x="96" y="1" width="18" height="18" style="fill: #397239;" />
  <rect x="115" y="1" width="18" height="18" style="fill: #397239;" />
  <rect x="134" y="1" width="18" height="18" style="fill: #397239;" />
  <rect x="153" y="1" width="18" height="18" style="fill: #397239;" />
  <rect x="172" y="1" width="18" height="18" style="fill: #397239;" />
  <rect x="191" y="1" width="18" height="18" style="fill: #397239;" />
  <rect x="210" y="1" width="18" height="18" style="fill: #397239;" />
  <rect x="229" y="1" width="18" height="18" style="fill: #393972;" />
  <circle cx="238" cy="10" r="6.3" style="fill: #0000ff;" />
  <rect x="1" y="20" width="18" height="18" style="fill: #553955;" />
  <circle cx="10" cy="29" r="6.3" style="fill: #800080;" />
  <rect x="20" y="20" width="18" height="18" style="fill: #553955;" />
  <rect x="39" y="20" width="18" height="18" style="fill: #553955;" />
  <rect x="58" y="20" width="18" height="18" style="fill: #397239;" />
  <circle cx="67" cy="29" r="6.3" style="fill: #00ff00;" />
  <rect x="77" y="20" width="18" height="18" style="fill: #397239;" />
  <rect x="96" y="20" width="18" height="18" style="fill: #646251;" />
  <rect x="115" y="20" width="18" height="18" style="fill: #646251;" />
  <rect x="134" y="20" width="18" height="18" style="fill: #646251;" />
  <rect x="153" y="20" width="18" height="18" style="fill: #646251;" />
  <rect x="172" y="20" width="18" height="18" style="fill: #646251;" />
  <rect x="191" y="20" width="18" height="18" style="fill: #646251;" />
  <circle cx="200" cy="29" r="6.3" style="fill: #bdb76b;" />
  <rect x="210" y="20" width="18" height="18" style="fill: #397239;" />
  <rect x="229" y="20" width="18" height="18" style="fill: #393972;" />
  <rect x="1" y="39" width="18" height="18" style="fill: #727272;" />
  <circle cx="10" cy="48" r="6.3" style="fill: #ffffff;" />
  <rect x="20" y="39" width="18" height="18" style="fill: #727272;" />
  <rect x="39" y="39" width="18" height="18" style="fill: #553955;" />
  <rect x="58" y="39" width="18" height="18" style="fill: #646251;" />
  <circle cx="67" cy="48" r="6.3" style="fill: #bdb76b;" />
  <rect x="77" y="39" width="18" height="18" style="fill: #646251;" />
  <rect x="96" y="39" width="18" height="18" style="fill: #646251;" />
  <rect x="115" y="39" width="18" height="18" style="fill: #397239;" />
  <rect x="134" y="39" width="18" height="18" style="fill: #397239;" />
  <rect x="153" y="39" width="18" height="18" style="fill: #397239;" />
  <rect x="172" y="39" width="18" height="18" style="fill: #397239;" />
  <rect x="191" y="39" width="18" height="18" style="fill: #397239;" />
  <rect x="210" y="39" width="18" height="18" style="fill: #397239;" />
  <rect x="229" y="39" width="18" height="18" style="fill: #393972;" />
  <circle cx="238" cy="48" r="6.3" style="fill: #0000ff;" />
  <rect x="1" y="58" width="18" height="18" style="fill: #723972;" />
  <circle cx="10" cy="67" r="6.3" style="fill: #ff00ff;" />
  <rect x="20" y="58" width="18" height="18" style="fill: #727272;" />
  <rect x="39" y="58" width="18" height="18" style="fill: #553955;" />
  <rect x="58" y="58" width="18" height="18" style="fill: #397272;" />
  <circle cx="67" cy="67" r="6.3" style="fill: #00ffff;" />
  <rect x="77" y="58" width="18" height="18" style="fill: #723939;" />
  <circle cx="86" cy="67" r="6.3" style="fill: #ff0000;" />
  <rect x="96" y="58" width="18" height="18" style="fill: #397239;" />
  <circle cx="105" cy="67" r="6.3" style="fill: #00ff00;" />
  <rect x="115" y="58" width="18" height="18" style="fill: #397239;" />
  <rect x="134" y="58" width="18" height="18" style="fill: #723939;" />
  <rect x="153" y="58" width="18" height="18" style="fill: #723939;" />
  <rect x="172" y="58" width="18" height="18" style="fill: #723939;" />
  <rect x="191" y="58" width="18" height="18" style="fill: #723939;" />
  <rect x="210" y="58" width="18" height="18" style="fill: #723939;" />
  <rect x="229" y="58" width="18" height="18" style="fill: #723939;" />
  <rect x="1" y="77" width="18" height="18" style="fill: #723972;" />
  <rect x="20" y="77" width="18" height="18" style="fill: #727272;" />
  <rect x="39" y="77" width="18" height="18" style="fill: #553955;" />
  <rect x="58" y="77" width="18" height="18" style="fill: #397272;" />
  <rect x="77" y="77" width="18" height="18" style="fill: #723939;" />
  <rect x="96" y="77" width="18" height="18" style="fill: #723939;" />
  <rect x="115" y="77" width="18" height="18" style="fill: #723939;" />
  <rect x="134" y="77" width="18" height="18" style="fill: #723939;" />
  <rect x="153" y="77" width="18" height="18" style="fill: #395539;" />
  <rect x="172" y="77" width="18" height="18" style="fill: #395539;" />
  <rect x="191" y="77" width="18" height="18" style="fill: #395539;" />
  <rect x="210" y="77" width="18" height="18" style="fill: #395539;" />
  <rect x="229" y="77" width="18" height="18" style="fill: #723939;" />
  <rect x="1" y="96" width="18" height="18" style="fill: #723972;" />
  <rect x="20" y="96" width="18" height="18" style="fill: #727272;" />
  <rect x="39" y="96" width="18" height="18" style="fill: #553955;" />
  <rect x="58" y="96" width="18" height="18" style="fill: #397272;" />
  <rect x="77" y="96" width="18" height="18" style="fill: #397272;" />
  <rect x="96" y="96" width="18" height="18" style="fill: #397272;" />
  <rect x="115" y="96" width="18" height="18" style="fill: #397272;" />
  <rect x="134" y="96" width="18" height="18" style="fill: #397272;" />
  <rect x="153" y="96" width="18" height="18" style="fill: #395539;" />
  <rect x="172" y="96" width="18" height="18" style="fill: #5f4242;" />
  <rect x="191" y="96" width="18" height="18" style="fill: #5f4242;" />
  <circle cx="200" cy="105" r="6.3" style="fill: #a52a2a;" />
  <rect x="210" y="96" width="18" height="18" style="fill: #395539;" />
  <rect x="229" y="96" width="18" height="18" style="fill: #723939;" />
  <rect x="1" y="115" width="18" height="18" style="fill: #723972;" />
  <rect x="20" y="115" width="18" height="18" style="fill: #727272;" />
  <rect x="39" y="115" width="18" height="18" style="fill: #553955;" />
  <rect x="58" y="115" width="18" height="18" style="fill: #553955;" />
  <rect x="77" y="115" width="18" height="18" style="fill: #553955;" />
  <rect x="96" y="115" width="18" height="18" style="fill: #553955;" />
  <rect x="115" y="115" width="18" height="18" style="fill: #553955;" />
  <rect x="134" y="115" width="18" height="18" style="fill: #397272;" />
  <rect x="153" y="115" width="18" height="18" style="fill: #395539;" />
  <circle cx="162" cy="124" r="6.3" style="fill: #008100;" />
  <rect x="172" y="115" width="18" height="18" style="fill: #5f4242;" />
  <rect x="191" y="115" width="18" height="18" style="fill: #395539;" />
  <circle cx="200" cy="124" r="6.3" style="fill: #008100;" />
  <rect x="210" y="115" width="18" height="18" style="fill: #395539;" />
  <rect x="229" y="115" width="18" height="18" style="fill: #723939;" />
  <rect x="1" y="134" width="18" height="18" style="fill: #723972;" />
  <rect x="20" y="134" width="18" height="18" style="fill: #727272;" />
  <rect x="39" y="134" width="18" height="18" style="fill: #727272;" />
  <rect x="58" y="134" width="18" height="18" style="fill: #723939;" />
  <rect x="77" y="134" width="18" height="18" style="fill: #723939;" />
  <rect x="96" y="134" width="18" height="18" style="fill: #723939;" />
  <rect x="115" y="134" width="18" height="18" style="fill: #553955;" />
  <rect x="134" y="134" width="18" height="18" style="fill: #397272;" />
  <rect x="153" y="134" width="18" height="18" style="fill: #397272;" />
  <circle cx="162" cy="143" r="6.3" style="fill: #00ffff;" />
  <rect x="172" y="134" width="18" height="18" style="fill: #5f4242;" />
  <rect x="191" y="134" width="18" height="18" style="fill: #5f4242;" />
  <rect x="210" y="134" width="18" height="18" style="fill: #5f4242;" />
  <rect x="229" y="134" width="18" height="18" style="fill: #723939;" />
  <rect x="1" y="153" width="18" height="18" style="fill: #723972;" />
  <rect x="20" y="153" width="18" height="18" style="fill: #723972;" />
  <rect x="39" y="153" width="18" height="18" style="fill: #727272;" />
  <rect x="58" y="153" width="18" height="18" style="fill: #723939;" />
  <rect x="77" y="153" width="18" height="18" style="fill: #723972;" />
  <circle cx="86" cy="162" r="6.3" style="fill: #ff00ff;" />
  <rect x="96" y="153" width="18" height="18" style="fill: #723939;" />
  <rect x="115" y="153" width="18" height="18" style="fill: #553955;" />
  <rect x="134" y="153" width="18" height="18" style="fill: #553955;" />
  <rect x="153" y="153" width="18" height="18" style="fill: #553955;" />
  <circle cx="162" cy="162" r="6.3" style="fill: #800080;" />
  <rect x="172" y="153" width="18" height="18" style="fill: #5f5e5f;" />
  <circle cx="181" cy="162" r="6.3" style="fill: #a6a6a6;" />
  <rect x="191" y="153" width="18" height="18" style="fill: #5f5e5f;" />
  <rect x="210" y="153" width="18" height="18" style="fill: #5f4242;" />
  <rect x="229" y="153" width="18" height="18" style="fill: #723939;" />
  <rect x="1" y="172" width="18" height="18" style="fill: #725539;" />
  <circle cx="10" cy="181" r="6.3" style="fill: #ff8000;" />
  <rect x="20" y="172" width="18" height="18" style="fill: #723972;" />
  <rect x="39" y="172" width="18" height="18" style="fill: #727272;" />
  <rect x="58" y="172" width="18" height="18" style="fill: #723939;" />
  <rect x="77" y="172" width="18" height="18" style="fill: #723972;" />
  <rect x="96" y="172" width="18" height="18" style="fill: #723939;" />
  <rect x="115" y="172" width="18" height="18" style="fill: #723939;" />
  <rect x="134" y="172" width="18" height="18" style="fill: #723939;" />
  <rect x="153" y="172" width="18" height="18" style="fill: #723939;" />
  <rect x="172" y="172" width="18" height="18" style="fill: #723939;" />
  <rect x="191" y="172" width="18" height="18" style="fill: #5f5e5f;" />
  <rect x="210" y="172" width="18" height="18" style="fill: #5f4242;" />
  <rect x="229" y="172" width="18" height="18" style="fill: #723939;" />
  <rect x="1" y="191" width="18" height="18" style="fill: #725539;" />
  <rect x="20" y="191" width="18" height="18" style="fill: #723972;" />
  <rect x="39" y="191" width="18" height="18" style="fill: #727272;" />
  <circle cx="48" cy="200" r="6.3" style="fill: #ffffff;" />
  <rect x="58" y="191" width="18" height="18" style="fill: #723939;" />
  <rect x="77" y="191" width="18" height="18" style="fill: #723972;" />
  <rect x="96" y="191" width="18" height="18" style="fill: #723972;" />
  <rect x="115" y="191" width="18" height="18" style="fill: #723972;" />
  <rect x="134" y="191" width="18" height="18" style="fill: #723972;" />
  <rect x="153" y="191" width="18" height="18" style="fill: #723972;" />
  <rect x="172" y="191" width="18" height="18" style="fill: #723939;" />
  <rect x="191" y="191" width="18" height="18" style="fill: #5f5e5f;" />
  <rect x="210" y="191" width="18" height="18" style="fill: #5f4242;" />
  <circle cx="219" cy="200" r="6.3" style="fill: #a52a2a;" />
  <rect x="229" y="191" width="18" height="18" style="fill: #723939;" />
  <rect x="1" y="210" width="18" height="18" style="fill: #725539;" />
  <rect x="20" y="210" width="18" height="18" style="fill: #723972;" />
  <rect x="39" y="210" width="18" height="18" style="fill: #723972;" />
  <rect x="58" y="210" width="18" height="18" style="fill: #723939;" />
  <rect x="77" y="210" width="18" height="18" style="fill: #723939;" />
  <rect x="96" y="210" width="18" height="18" style="fill: #723939;" />
  <rect x="115" y="210" width="18" height="18" style="fill: #723939;" />
  <rect x="134" y="210" width="18" height="18" style="fill: #723939;" />
  <circle cx="143" cy="219" r="6.3" style="fill: #ff0000;" />
  <rect x="153" y="210" width="18" height="18" style="fill: #723972;" />
  <rect x="172" y="210" width="18" height="18" style="fill: #723939;" />
  <rect x="191" y="210" width="18" height="18" style="fill: #5f5e5f;" />
  <rect x="210" y="210" width="18" height="18" style="fill: #5f5e5f;" />
  <circle cx="219" cy="219" r="6.3" style="fill: #a6a6a6;" />
  <rect x="229" y="210" width="18" height="18" style="fill: #723939;" />
  <rect x="1" y="229" width="18" height="18" style="fill: #725539;" />
  <rect x="20" y="229" width="18" height="18" style="fill: #725539;" />
  <circle cx="29" cy="238" r="6.3" style="fill: #ff8000;" />
  <rect x="39" y="229" width="18" height="18" style="fill: #723972;" />
  <rect x="58" y="229" width="18" height="18" style="fill: #723972;" />
  <rect x="77" y="229" width="18" height="18" style="fill: #723972;" />
  <rect x="96" y="229" width="18" height="18" style="fill: #723972;" />
  <rect x="115" y="229" width="18" height="18" style="fill: #723972;" />
  <rect x="134" y="229" width="18" height="18" style="fill: #723972;" />
  <rect x="153" y="229" width="18" height="18" style="fill: #723972;" />
  <rect x="172" y="229" width="18" height="18" style="fill: #723939;" />
  <rect x="191" y="229" width="18" height="18" style="fill: #723939;" />
  <rect x="210" y="229" width="18" height="18" style="fill: #723939;" />
  <rect x="229" y="229" width="18" height="18" style="fill: #723939;" />
  <path d="M 67,10 h -19 h -19 h -19  " style="stroke: #eeee00; stroke-width: 6.3; fill: none; stroke-linecap: round" />
  <path d="M 238,48 v -19 v -19  " style="stroke: #0000ff; stroke-width: 6.3; fill: none; stroke-linecap: round" />
  <path d="M 162,162 h -19 h -19 v -19 v -19 h -19 h -19 h -19 h -19 v -19 v -19 v -19 v -19 v -19 h -19 h -19  " style="stroke: #800080; stroke-width: 6.3; fill: none; stroke-linecap: round" />
  <path d="M 105,67 h 19 v -19 h 19 h 19 h 19 h 19 h 19 v -19 v -19 h -19 h -19 h -19 h -19 h -19 h -19 h -19 v 19 h -19  " style="stroke: #00ff00; stroke-width: 6.3; fill: none; stroke-linecap: round" />
  <path d="M 67,48 h 19 h 19 v -19 h 19 h 19 h 19 h 19 h 19  " style="stroke: #bdb76b; stroke-width: 6.3; fill: none; stroke-linecap: round" />
  <path d="M 48,200 v -19 v -19 v -19 h -19 v -19 v -19 v -19 v -19 v -19 h -19  " style="stroke: #ffffff; stroke-width: 6.3; fill: none; stroke-linecap: round" />
  <path d="M 86,162 v 19 v 19 h 19 h 19 h 19 h 19 v 19 v 19 h -19 h -19 h -19 h -19 h -19 h -19 v -19 h -19 v -19 v -19 v -19 h -19 v -19 v -19 v -19 v -19 v -19  " style="stroke: #ff00ff; stroke-width: 6.3; fill: none; stroke-linecap: round" />
  <path d="M 162,143 h -19 v -19 v -19 h -19 h -19 h -19 h -19 v -19 v -19  " style="stroke: #00ffff; stroke-width: 6.3; fill: none; stroke-linecap: round" />
  <path d="M 86,67 v 19 h 19 h 19 h 19 v -19 h 19 h 19 h 19 h 19 h 19 v 19 v 19 v 19 v 19 v 19 v 19 v 19 v 19 v 19 h -19 h -19 h -19 v -19 v -19 v -19 h -19 h -19 h -19 h -19 v -19 v -19 h -19 h -19 v 19 v 19 v 19 v 19 h 19 h 19 h 19 h 19  " style="stroke: #ff0000; stroke-width: 6.3; fill: none; stroke-linecap: round" />
  <path d="M 200,105 h -19 v 19 v 19 h 19 h 19 v 19 v 19 v 19  " style="stroke: #a52a2a; stroke-width: 6.3; fill: none; stroke-linecap: round" />
  <path d="M 162,124 v -19 v -19 h 19 h 19 h 19 v 19 v 19 h -19  " style="stroke: #008100; stroke-width: 6.3; fill: none; stroke-linecap: round" />
  <path d="M 181,162 h 19 v 19 v 19 v 19 h 19  " style="stroke: #a6a6a6; stroke-width: 6.3; fill: none; stroke-linecap: round" />
  <path d="M 29,238 h -19 v -19 v -19 v -19  " style="stroke: #ff8000; stroke-width: 6.3; fill: none; stroke-linecap: round" />
</svg>
