<svg xmlns="http://www.w3.org/2000/svg" width="253" height="253">
  <rect width="253" height="253" style="fill: #7b7c41;" />
  <rect x="1" y="1" width="17" height="17" style="fill: #723972;" />
  <circle cx="9.5" cy="9.5" r="5.95" style="fill: #ff00ff;" />
  <rect x="19" y="1" width="17" height="17" style="fill: #397272;" />
  <circle cx="27.5" cy="9.5" r="5.95" style="fill: #00ffff;" />
  <rect x="37" y="1" width="17" height="17" style="fill: #395539;" />
  <circle cx="45.5" cy="9.5" r="5.95" style="fill: #008100;" />
  <rect x="55" y="1" width="17" height="17" style="fill: #395539;" />
  <rect x="73" y="1" width="17" height="17" style="fill: #395539;" />
  <rect x="91" y="1" width="17" height="17" style="fill: #395539;" />
  <rect x="109" y="1" width="17" height="17" style="fill: #395539;" />
  <rect x="127" y="1" width="17" height="17" style="fill: #727272;" />
  <rect x="145" y="1" width="17" height="17" style="fill: #727272;" />
  <rect x="163" y="1" width="17" height="17" style="fill: #727272;" />
  <rect x="181" y="1" width="17" height="17" style="fill: #727272;" />
  <rect x="199" y="1" width="17" height="17" style="fill: #727272;" />
  <rect x="217" y="1" width="17" height="17" style="fill: #727272;" />
  <rect x="235" y="1" width="17" height="17" style="fill: #727272;" />
  <rect x="1" y="19" width="17" height="17" style="fill: #723972;" />
  <rect x="19" y="19" width="17" height="17" style="fill: #397272;" />
  <rect x="37" y="19" width="17" height="17" style="fill: #397272;" />
  <rect x="55" y="19" width="17" height="17" style="fill: #397272;" />
  <rect x="73" y="19" width="17" height="17" style="fill: #397272;" />
  <rect x="91" y="19" width="17" height="17" style="fill: #397272;" />
  <rect x="109" y="19" width="17" height="17" style="fill: #395539;" />
  <rect x="127" y="19" width="17" height="17" style="fill: #727272;" />
  <rect x="145" y="19" width="17" height="17" style="fill: #5f5e5f;" />
  <rect x="163" y="19" width="17" height="17" style="fill: #5f5e5f;" />
  <rect x="181" y="19" width="17" height="17" style="fill: #5f5e5f;" />
  <rect x="199" y="19" width="17" height="17" style="fill: #5f5e5f;" />
  <rect x="217" y="19" width="17" height="17" style="fill: #5f5e5f;" />
  <rect x="235" y="19" width="17" height="17" style="fill: #727272;" />
  <rect x="1" y="37" width="17" height="17" style="fill: #723972;" />
  <rect x="19" y="37" width="17" height="17" style="fill: #723972;" />
  <rect x="37" y="37" width="17" height="17" style="fill: #723972;" />
  <rect x="55" y="37" width="17" height="17" style="fill: #723972;" />
  <rect x="73" y="37" width="17" height="17" style="fill: #725539;" />
  <circle cx="81.5" cy="45.5" r="5.95" style="fill: #ff8000;" />
  <rect x="91" y="37" width="17" height="17" style="fill: #397272;" />
  <rect x="109" y="37" width="17" height="17" style="fill: #395539;" />
  <rect x="127" y="37" width="17" height="17" style="fill: #727272;" />
  <rect x="145" y="37" width="17" height="17" style="fill: #5f5e5f;" />
  <rect x="163" y="37" width="17" height="17" style="fill: #393972;" />
  <circle cx="171.5" cy="45.5" r="5.95" style="fill: #0000ff;" />
  <rect x="181" y="37" width="17" height="17" style="fill: #393972;" />
  <rect x="199" y="37" width="17" height="17" style="fill: #393972;" />
  <rect x="217" y="37" width="17" height="17" style="fill: #5f5e5f;" />
  <circle cx="225.5" cy="45.5" r="5.95" style="fill: #a6a6a6;" />
  <rect x="235" y="37" width="17" height="17" style="fill: #727272;" />
  <rect x="1" y="55" width="17" height="17" style="fill: #5f4242;" />
  <rect x="19" y="55" width="17" height="17" style="fill: #5f4242;" />
  <rect x="37" y="55" width="17" height="17" style="fill: #5f4242;" />
  <rect x="55" y="55" width="17" height="17" style="fill: #723972;" />
  <rect x="73" y="55" width="17" height="17" style="fill: #725539;" />
  <rect x="91" y="55" width="17" height="17" style="fill: #397272;" />
  <rect x="109" y="55" width="17" height="17" style="fill: #395539;" />
  <rect x="127" y="55" width="17" height="17" style="fill: #727272;" />
  <rect x="145" y="55" width="17" height="17" style="fill: #5f5e5f;" />
  <rect x="163" y="55" width="17" height="17" style="fill: #5f5e5f;" />
  <rect x="181" y="55" width="17" height="17" style="fill: #5f5e5f;" />
  <rect x="199" y="55" width="17" height="17" style="fill: #393972;" />
  <rect x="217" y="55" width="17" height="17" style="fill: #393972;" />
  <circle cx="225.5" cy="63.5" r="5.95" style="fill: #0000ff;" />
  <rect x="235" y="55" width="17" height="17" style="fill: #727272;" />
  <circle cx="243.5" cy="63.5" r="5.95" style="fill: #ffffff;" />
  <rect x="1" y="73" width="17" height="17" style="fill: #5f4242;" />
  <rect x="19" y="73" width="17" height="17" style="fill: #723939;" />
  <circle cx="27.5" cy="81.5" r="5.95" style="fill: #ff0000;" />
  <rect x="37" y="73" width="17" height="17" style="fill: #5f4242;" />
  <rect x="55" y="73" width="17" height="17" style="fill: #723972;" />
  <rect x="73" y="73" width="17" height="17" style="fill: #725539;" />
  <rect x="91" y="73" width="17" height="17" style="fill: #397272;" />
  <rect x="109" y="73" width="17" height="17" style="fill: #395539;" />
  <rect x="127" y="73" width="17" height="17" style="fill: #727272;" />
  <rect x="145" y="73" width="17" height="17" style="fill: #727272;" />
  <rect x="163" y="73" width="17" height="17" style="fill: #727272;" />
  <circle cx="171.5" cy="81.5" r="5.95" style="fill: #ffffff;" />
  <rect x="181" y="73" width="17" height="17" style="fill: #5f5e5f;" />
  <rect x="199" y="73" width="17" height="17" style="fill: #5f5e5f;" />
  <rect x="217" y="73" width="17" height="17" style="fill: #5f5e5f;" />
  <rect x="235" y="73" width="17" height="17" style="fill: #5f5e5f;" />
  <rect x="1" y="91" width="17" height="17" style="fill: #5f4242;" />
  <rect x="19" y="91" width="17" height="17" style="fill: #723939;" />
  <rect x="37" y="91" width="17" height="17" style="fill: #5f4242;" />
  <rect x="55" y="91" width="17" height="17" style="fill: #723972;" />
  <rect x="73" y="91" width="17" height="17" style="fill: #725539;" />
  <rect x="91" y="91" width="17" height="17" style="fill: #397272;" />
  <rect x="109" y="91" width="17" height="17" style="fill: #395539;" />
  <rect x="127" y="91" width="17" height="17" style="fill: #395539;" />
  <rect x="145" y="91" width="17" height="17" style="fill: #6e6e39;" />
  <rect x="163" y="91" width="17" height="17" style="fill: #6e6e39;" />
  <rect x="181" y="91" width="17" height="17" style="fill: #6e6e39;" />
  <rect x="199" y="91" width="17" height="17" style="fill: #6e6e39;" />
  <rect x="217" y="91" width="17" height="17" style="fill: #6e6e39;" />
  <circle cx="225.5" cy="99.5" r="5.95" style="fill: #eeee00;" />
  <rect x="235" y="91" width="17" height="17" style="fill: #5f5e5f;" />
  <circle cx="243.5" cy="99.5" r="5.95" style="fill: #a6a6a6;" />
  <rect x="1" y="109" width="17" height="17" style="fill: #5f4242;" />
  <rect x="19" y="109" width="17" height="17" style="fill: #723939;" />
  <rect x="37" y="109" width="17" height="17" style="fill: #5f4242;" />
  <rect x="55" y="109" width="17" height="17" style="fill: #723972;" />
  <rect x="73" y="109" width="17" height="17" style="fill: #725539;" />
  <rect x="91" y="109" width="17" height="17" style="fill: #397272;" />
  <rect x="109" y="109" width="17" height="17" style="fill: #397272;" />
  <rect x="127" y="109" width="17" height="17" style="fill: #395539;" />
  <rect x="145" y="109" width="17" height="17" style="fill: #6e6e39;" />
  <rect x="163" y="109" width="17" height="17" style="fill: #553955;" />
  <rect x="181" y="109" width="17" height="17" style="fill: #553955;" />
  <rect x="199" y="109" width="17" height="17" style="fill: #553955;" />
  <rect x="217" y="109" width="17" height="17" style="fill: #553955;" />
  <rect x="235" y="109" width="17" height="17" style="fill: #553955;" />
  <rect x="1" y="127" width="17" height="17" style="fill: #5f4242;" />
  <rect x="19" y="127" width="17" height="17" style="fill: #723939;" />
  <rect x="37" y="127" width="17" height="17" style="fill: #5f4242;" />
  <rect x="55" y="127" width="17" height="17" style="fill: #723972;" />
  <rect x="73" y="127" width="17" height="17" style="fill: #725539;" />
  <rect x="91" y="127" width="17" height="17" style="fill: #725539;" />
  <rect x="109" y="127" width="17" height="17" style="fill: #397272;" />
  <rect x="127" y="127" width="17" height="17" style="fill: #395539;" />
  <rect x="145" y="127" width="17" height="17" style="fill: #6e6e39;" />
  <rect x="163" y="127" width="17" height="17" style="fill: #553955;" />
  <rect x="181" y="127" width="17" height="17" style="fill: #5f4242;" />
  <circle cx="189.5" cy="135.5" r="5.95" style="fill: #a52a2a;" />
  <rect x="199" y="127" width="17" height="17" style="fill: #5f4242;" />
  <rect x="217" y="127" width="17" height="17" style="fill: #5f4242;" />
  <rect x="235" y="127" width="17" height="17" style="fill: #553955;" />
  <rect x="1" y="145" width="17" height="17" style="fill: #5f4242;" />
  <rect x="19" y="145" width="17" height="17" style="fill: #723939;" />
  <rect x="37" y="145" width="17" height="17" style="fill: #5f4242;" />
  <rect x="55" y="145" width="17" height="17" style="fill: #723972;" />
  <rect x="73" y="145" width="17" height="17" style="fill: #723972;" />
  <rect x="91" y="145" width="17" height="17" style="fill: #725539;" />
  <rect x="109" y="145" width="17" height="17" style="fill: #397272;" />
  <rect x="127" y="145" width="17" height="17" style="fill: #395539;" />
  <circle cx="135.5" cy="153.5" r="5.95" style="fill: #008100;" />
  <rect x="145" y="145" width="17" height="17" style="fill: #6e6e39;" />
  <rect x="163" y="145" width="17" height="17" style="fill: #553955;" />
  <circle cx="171.5" cy="153.5" r="5.95" style="fill: #800080;" />
  <rect x="181" y="145" width="17" height="17" style="fill: #723972;" />
  <circle cx="189.5" cy="153.5" r="5.95" style="fill: #ff00ff;" />
  <rect x="199" y="145" width="17" height="17" style="fill: #723972;" />
  <rect x="217" y="145" width="17" height="17" style="fill: #5f4242;" />
  <rect x="235" y="145" width="17" height="17" style="fill: #553955;" />
  <rect x="1" y="163" width="17" height="17" style="fill: #5f4242;" />
  <rect x="19" y="163" width="17" height="17" style="fill: #723939;" />
  <rect x="37" y="163" width="17" height="17" style="fill: #5f4242;" />
  <rect x="55" y="163" width="17" height="17" style="fill: #5f4242;" />
  <rect x="73" y="163" width="17" height="17" style="fill: #723972;" />
  <rect x="91" y="163" width="17" height="17" style="fill: #725539;" />
  <rect x="109" y="163" width="17" height="17" style="fill: #397272;" />
  <rect x="127" y="163" width="17" height="17" style="fill: #397272;" />
  <rect x="145" y="163" width="17" height="17" style="fill: #6e6e39;" />
  <rect x="163" y="163" width="17" height="17" style="fill: #6e6e39;" />
  <rect x="181" y="163" width="17" height="17" style="fill: #6e6e39;" />
  <circle cx="189.5" cy="171.5" r="5.95" style="fill: #eeee00;" />
  <rect x="199" y="163" width="17" height="17" style="fill: #723972;" />
  <rect x="217" y="163" width="17" height="17" style="fill: #5f4242;" />
  <rect x="235" y="163" width="17" height="17" style="fill: #553955;" />
  <rect x="1" y="181" width="17" height="17" style="fill: #5f4242;" />
  <rect x="19" y="181" width="17" height="17" style="fill: #723939;" />
  <rect x="37" y="181" width="17" height="17" style="fill: #723939;" />
  <rect x="55" y="181" width="17" height="17" style="fill: #5f4242;" />
  <rect x="73" y="181" width="17" height="17" style="fill: #723972;" />
  <rect x="91" y="181" width="17" height="17" style="fill: #725539;" />
  <rect x="109" y="181" width="17" height="17" style="fill: #725539;" />
  <circle cx="117.5" cy="189.5" r="5.95" style="fill: #ff8000;" />
  <rect x="127" y="181" width="17" height="17" style="fill: #397272;" />
  <rect x="145" y="181" width="17" height="17" style="fill: #397272;" />
  <rect x="163" y="181" width="17" height="17" style="fill: #397272;" />
  <rect x="181" y="181" width="17" height="17" style="fill: #397272;" />
  <circle cx="189.5" cy="189.5" r="5.95" style="fill: #00ffff;" />
  <rect x="199" y="181" width="17" height="17" style="fill: #723972;" />
  <rect x="217" y="181" width="17" height="17" style="fill: #5f4242;" />
  <rect x="235" y="181" width="17" height="17" style="fill: #553955;" />
  <rect x="1" y="199" width="17" height="17" style="fill: #5f4242;" />
  <rect x="19" y="199" width="17" height="17" style="fill: #5f4242;" />
  <rect x="37" y="199" width="17" height="17" style="fill: #723939;" />
  <rect x="55" y="199" width="17" height="17" style="fill: #5f4242;" />
  <rect x="73" y="199" width="17" height="17" style="fill: #723972;" />
  <rect x="91" y="199" width="17" height="17" style="fill: #723972;" />
  <rect x="109" y="199" width="17" height="17" style="fill: #723972;" />
  <rect x="127" y="199" width="17" height="17" style="fill: #723972;" />
  <rect x="145" y="199" width="17" height="17" style="fill: #723972;" />
  <rect x="163" y="199" width="17" height="17" style="fill: #723972;" />
  <rect x="181" y="199" width="17" height="17" style="fill: #723972;" />
  <rect x="199" y="199" width="17" height="17" style="fill: #723972;" />
  <rect x="217" y="199" width="17" height="17" style="fill: #5f4242;" />
  <rect x="235" y="199" width="17" height="17" style="fill: #553955;" />
  <rect x="1" y="217" width="17" height="17" style="fill: #553955;" />
  <circle cx="9.5" cy="225.5" r="5.95" style="fill: #800080;" />
  <rect x="19" y="217" width="17" height="17" style="fill: #5f4242;" />
  <circle cx="27.5" cy="225.5" r="5.95" style="fill: #a52a2a;" />
  <rect x="37" y="217" width="17" height="17" style="fill: #723939;" />
  <circle cx="45.5" cy="225.5" r="5.95" style="fill: #ff0000;" />
  <rect x="55" y="217" width="17" height="17" style="fill: #5f4242;" />
  <rect x="73" y="217" width="17" height="17" style="fill: #5f4242;" />
  <rect x="91" y="217" width="17" height="17" style="fill: #5f4242;" />
  <rect x="109" y="217" width="17" height="17" style="fill: #5f4242;" />
  <rect x="127" y="217" width="17" height="17" style="fill: #5f4242;" />
  <rect x="145" y="217" width="17" height="17" style="fill: #5f4242;" />
  <rect x="163" y="217" width="17" height="17" style="fill: #5f4242;" />
  <rect x="181" y="217" width="17" height="17" style="fill: #5f4242;" />
  <rect x="199" y="217" width="17" height="17" style="fill: #5f4242;" />
  <rect x="217" y="217" width="17" height="17" style="fill: #5f4242;" />
  <rect x="235" y="217" width="17" height="17" style="fill: #553955;" />
  <rect x="1" y="235" width="17" height="17" style="fill: #553955;" />
  <rect x="19" y="235" width="17" height="17" style="fill: #553955;" />
  <rect x="37" y="235" width="17" height="17" style="fill: #553955;" />
  <rect x="55" y="235" width="17" height="17" style="fill: #553955;" />
  <rect x="73" y="235" width="17" height="17" style="fill: #553955;" />
  <rect x="91" y="235" width="17" height="17" style="fill: #553955;" />
  <rect x="109" y="235" width="17" height="17" style="fill: #553955;" />
  <rect x="127" y="235" width="17" height="17" style="fill: #553955;" />
  <rect x="145" y="235" width="17" height="17" style="fill: #553955;" />
  <rect x="163" y="235" width="17" height="17" style="fill: #553955;" />
  <rect x="181" y="235" width="17" height="17" style="fill: #553955;" />
  <rect x="199" y="235" width="17" height="17" style="fill: #553955;" />
  <rect x="217" y="235" width="17" height="17" style="fill: #553955;" />
  <rect x="235" y="235" width="17" height="17" style="fill: #553955;" />
  <path d="M 189.5,153.5 h 18 v 18 v 18 v 18 h -18 h -18 h -18 h -18 h -18 h -18 h -18 v -18 v -18 v -18 h -18 v -18 v -18 v -18 v -18 v -18 v -18 h -18 h -18 h -18 v -18 v -18  " style="stroke: #ff00ff; stroke-width: 5.95; fill: none; stroke-linecap: round" />
  <path d="M 189.5,189.5 h -18 h -18 h -18 v -18 h -18 v -18 v -18 v -18 h -18 v -18 v -18 v -18 v -18 v -18 h -18 h -18 h -18 h -18 v -18  " style="stroke: #00ffff; stroke-width: 5.95; fill: none; stroke-linecap: round" />
  <path d="M 135.5,153.5 v -18 v -18 v -18 h -18 v -18 v -18 v -18 v -18 v -18 h -18 h -18 h -18 h -18  " style="stroke: #008100; stroke-width: 5.95; fill: none; stroke-linecap: round" />
  <path d="M 117.5,189.5 h -18 v -18 v -18 v -18 h -18 v -18 v -18 v -18 v -18 v -18  " style="stroke: #ff8000; stroke-width: 5.95; fill: none; stroke-linecap: round" />
  <path d="M 171.5,45.5 h 18 h 18 v 18 h 18  " style="stroke: #0000ff; stroke-width: 5.95; fill: none; stroke-linecap: round" />
  <path d="M 225.5,45.5 v -18 h -18 h -18 h -18 h -18 v 18 v 18 h 18 h 18 v 18 h 18 h 18 h 18 v 18  " style="stroke: #a6a6a6; stroke-width: 5.95; fill: none; stroke-linecap: round" />
  <path d="M 171.5,81.5 h -18 h -18 v -18 v -18 v -18 v -18 h 18 h 18 h 18 h 18 h 18 h 18 v 18 v 18 v 18  " style="stroke: #ffffff; stroke-width: 5.95; fill: none; stroke-linecap: round" />
  <path d="M 45.5,225.5 v -18 v -18 h -18 v -18 v -18 v -18 v -18 v -18 v -18  " style="stroke: #ff0000; stroke-width: 5.95; fill: none; stroke-linecap: round" />
  <path d="M 189.5,171.5 h -18 h -18 v -18 v -18 v -18 v -18 h 18 h 18 h 18 h 18  " style="stroke: #eeee00; stroke-width: 5.95; fill: none; stroke-linecap: round" />
  <path d="M 189.5,135.5 h 18 h 18 v 18 v 18 v 18 v 18 v 18 h -18 h -18 h -18 h -18 h -18 h -18 h -18 h -18 h -18 v -18 v -18 v -18 h -18 v -18 v -18 v -18 v -18 v -18 v -18 h -18 h -18 v 18 v 18 v 18 v 18 v 18 v 18 v 18 v 18 h 18 v 18  " style="stroke: #a52a2a; stroke-width: 5.95; fill: none; stroke-linecap: round" />
  <path d="M 171.5,153.5 v -18 v -18 h 18 h 18 h 18 h 18 v 18 v 18 v 18 v 18 v 18 v 18 v 18 h -18 h -18 h -18 h -18 h -18 h -18 h -18 h -18 h -18 h -18 h -18 h -18 h -18 v -18  " style="stroke: #800080; stroke-width: 5.95; fill: none; stroke-linecap: round" />
</svg>
